<svg width="313" height="470" viewBox="0 0 313 470" fill="none" xmlns="http://www.w3.org/2000/svg">
<rect width="313" height="469.5" fill="#F1F5F9"/>
<path d="M100.951 256.431C99.3633 256.473 98.277 256.515 97.6921 256.556C97.1072 256.556 96.6894 256.556 96.4387 256.556C96.188 256.556 96.0627 256.473 96.0627 256.306C96.0627 256.097 96.188 255.992 96.4387 255.992C96.9401 255.992 97.2743 255.992 97.4414 255.992C97.6503 255.992 97.7757 255.971 97.8175 255.93C98.2353 255.762 98.5486 255.512 98.7575 255.178C99.0082 254.843 99.2171 254.363 99.3842 253.736C99.7603 252.901 100.032 251.605 100.199 249.851C100.366 248.096 100.45 245.046 100.45 240.701V228.229C100.45 226.098 100.429 224.406 100.387 223.153C100.387 221.899 100.387 220.834 100.387 219.956C100.262 217.45 100.011 215.778 99.6349 214.943C99.3007 214.107 98.4651 213.689 97.1281 213.689H96.376C96.1253 213.689 96 213.606 96 213.439C96 213.23 96.1253 213.125 96.376 213.125C96.7103 213.125 97.2325 213.146 97.9428 213.188C98.6531 213.188 99.8438 213.209 101.515 213.251C102.601 213.292 103.333 213.313 103.709 213.313C104.085 213.313 104.335 213.313 104.461 213.313C104.586 213.313 104.837 213.313 105.213 213.313C105.589 213.313 106.341 213.292 107.469 213.251C109.224 213.209 110.477 213.188 111.229 213.188C111.981 213.146 112.545 213.125 112.921 213.125C113.172 213.125 113.297 213.23 113.297 213.439C113.297 213.606 113.172 213.689 112.921 213.689H111.668C110.414 213.689 109.62 213.961 109.286 214.504C108.952 215.047 108.701 216.071 108.534 217.575C108.492 218.243 108.451 219.058 108.409 220.019C108.367 220.938 108.325 222.087 108.284 223.466C108.284 224.218 108.284 225.075 108.284 226.036C108.284 226.955 108.284 228.062 108.284 229.357V235.938L116.556 227.038C118.896 224.49 120.672 222.275 121.883 220.395C123.137 218.515 123.763 217.011 123.763 215.883C123.721 215.131 123.492 214.567 123.074 214.191C122.698 213.815 122.092 213.627 121.256 213.627C121.173 213.627 121.048 213.648 120.88 213.689C120.755 213.689 120.567 213.731 120.316 213.815C120.149 213.815 120.024 213.836 119.94 213.877C119.898 213.877 119.857 213.877 119.815 213.877C119.648 213.877 119.502 213.836 119.376 213.752C119.293 213.668 119.251 213.585 119.251 213.501C119.251 213.376 119.314 213.292 119.439 213.251C119.564 213.167 119.731 213.125 119.94 213.125C120.149 213.125 120.504 213.125 121.006 213.125C121.549 213.125 122.552 213.146 124.014 213.188C125.435 213.23 126.395 213.251 126.897 213.251C127.398 213.251 127.732 213.251 127.9 213.251C128.025 213.251 128.255 213.251 128.589 213.251C128.965 213.251 129.675 213.23 130.72 213.188C132.307 213.146 133.435 213.125 134.104 213.125C134.773 213.125 135.274 213.125 135.608 213.125C135.817 213.125 135.921 213.23 135.921 213.439C135.921 213.606 135.817 213.689 135.608 213.689H135.483C133.519 213.689 131.075 214.797 128.15 217.011C125.267 219.184 121.591 222.651 117.12 227.414L111.48 233.431C112.482 232.637 113.569 232.052 114.739 231.676C115.909 231.258 117.12 231.049 118.374 231.049C119.836 231.049 120.964 231.195 121.758 231.488C122.593 231.78 123.366 232.303 124.077 233.055C124.912 233.723 125.643 234.663 126.27 235.875C126.897 237.087 128.004 240.095 129.592 244.9C130.887 248.91 132.078 251.773 133.164 253.485C134.25 255.157 135.545 255.992 137.05 255.992H137.614C137.906 255.992 138.031 256.097 137.99 256.306C137.99 256.473 137.843 256.556 137.551 256.556H135.733C135.023 256.556 134.292 256.577 133.54 256.619C132.83 256.661 131.89 256.724 130.72 256.807C130.093 256.849 129.633 256.87 129.341 256.87C129.09 256.912 128.881 256.932 128.714 256.932C127.962 256.932 127.315 256.807 126.771 256.556C126.228 256.348 125.727 255.971 125.267 255.428C124.641 254.676 123.993 253.423 123.325 251.668C122.698 249.913 121.967 247.386 121.131 244.085C120.045 240.032 118.958 237.149 117.872 235.436C116.786 233.723 115.553 232.867 114.175 232.867C113.381 232.867 112.629 233.076 111.918 233.493C111.25 233.869 110.519 234.475 109.725 235.311L109.788 235.248L108.284 236.815V240.325C108.284 241.62 108.284 242.748 108.284 243.709C108.284 244.628 108.284 245.464 108.284 246.216C108.325 247.594 108.367 248.764 108.409 249.725C108.451 250.644 108.492 251.438 108.534 252.107C108.701 253.611 108.952 254.634 109.286 255.178C109.62 255.721 110.414 255.992 111.668 255.992H112.984C113.235 255.992 113.36 256.097 113.36 256.306C113.36 256.473 113.235 256.556 112.984 256.556C112.733 256.556 112.274 256.556 111.605 256.556C110.978 256.515 109.809 256.473 108.096 256.431C106.759 256.389 105.86 256.368 105.401 256.368C104.941 256.368 104.628 256.368 104.461 256.368C104.293 256.368 103.98 256.389 103.521 256.431C103.103 256.431 102.246 256.431 100.951 256.431ZM143.252 256.431C141.664 256.473 140.515 256.515 139.805 256.556C139.095 256.556 138.573 256.556 138.238 256.556C137.988 256.556 137.862 256.473 137.862 256.306C137.862 256.097 137.988 255.992 138.238 255.992H138.928C140.139 255.992 140.912 255.762 141.247 255.303C141.623 254.802 141.873 253.903 141.999 252.608C142.082 251.981 142.145 251.25 142.187 250.415C142.228 249.537 142.27 248.451 142.312 247.156C142.312 246.487 142.312 245.714 142.312 244.837C142.312 243.959 142.312 242.936 142.312 241.766V228.229C142.312 226.098 142.291 224.406 142.249 223.153C142.249 221.899 142.249 220.834 142.249 219.956C142.124 217.45 141.873 215.778 141.497 214.943C141.163 214.107 140.327 213.689 138.99 213.689H138.238C137.988 213.689 137.862 213.606 137.862 213.439C137.862 213.23 137.988 213.125 138.238 213.125C138.573 213.125 139.095 213.146 139.805 213.188C140.515 213.188 141.664 213.209 143.252 213.251C144.338 213.292 145.07 213.313 145.446 213.313C145.822 213.313 146.072 213.313 146.197 213.313C146.323 213.313 146.678 213.313 147.263 213.313C147.89 213.272 149.08 213.251 150.835 213.251C152.924 213.209 154.345 213.188 155.097 213.188C155.849 213.146 156.329 213.125 156.538 213.125C162.805 213.125 167.339 213.94 170.138 215.57C172.979 217.157 174.4 219.685 174.4 223.153C174.4 226.161 173.042 228.542 170.326 230.297C167.652 232.052 163.641 233.201 158.293 233.744C164.268 234.037 168.696 235.102 171.579 236.94C174.462 238.779 175.904 241.432 175.904 244.9C175.904 248.827 174.42 251.752 171.454 253.673C168.529 255.595 164.101 256.556 158.168 256.556C157.959 256.556 157.416 256.556 156.538 256.556C155.661 256.515 154.01 256.473 151.587 256.431C149.498 256.431 148.099 256.431 147.388 256.431C146.72 256.389 146.323 256.368 146.197 256.368C146.072 256.368 145.822 256.368 145.446 256.368C145.07 256.368 144.338 256.389 143.252 256.431ZM155.598 213.815H150.898C150.564 214.065 150.355 214.483 150.271 215.068C150.188 215.653 150.146 217.032 150.146 219.204C150.188 221.461 150.209 222.86 150.209 223.403C150.209 223.905 150.209 224.406 150.209 224.907V233.556H154.721C158.481 233.556 161.259 232.721 163.056 231.049C164.853 229.336 165.751 226.725 165.751 223.215C165.751 219.915 164.978 217.533 163.432 216.071C161.886 214.567 159.275 213.815 155.598 213.815ZM150.334 251.355C150.459 253.193 150.71 254.426 151.086 255.052C151.462 255.679 152.36 255.992 153.781 255.992H156.852C160.403 255.992 163.035 255.073 164.748 253.235C166.461 251.396 167.318 248.597 167.318 244.837C167.318 241.077 166.378 238.382 164.498 236.752C162.617 235.081 159.63 234.245 155.536 234.245H150.209V244.524C150.209 246.236 150.209 247.636 150.209 248.722C150.25 249.767 150.292 250.644 150.334 251.355ZM194.305 256.431C192.551 256.473 191.297 256.515 190.545 256.556C189.793 256.556 189.25 256.556 188.916 256.556C188.665 256.556 188.54 256.473 188.54 256.306C188.54 256.097 188.665 255.992 188.916 255.992H190.044C191.297 255.992 192.091 255.721 192.425 255.178C192.759 254.634 193.01 253.611 193.177 252.107C193.219 251.438 193.261 250.644 193.303 249.725C193.344 248.764 193.386 247.594 193.428 246.216C193.428 245.464 193.428 244.628 193.428 243.709C193.428 242.748 193.428 241.62 193.428 240.325V213.627H190.859C187.641 213.627 185.03 214.797 183.025 217.136C181.061 219.434 179.87 222.714 179.452 226.976L179.076 230.548C179.035 230.757 178.909 230.861 178.7 230.861C178.491 230.861 178.408 230.757 178.45 230.548L178.826 226.976C178.951 225.764 179.035 224.448 179.076 223.027C179.16 221.607 179.243 219.706 179.327 217.324C179.369 215.653 179.39 214.609 179.39 214.191C179.431 213.731 179.494 213.48 179.578 213.439C179.787 213.313 180.622 213.209 182.085 213.125C183.589 213.042 185.302 213 187.224 213C187.474 213 187.829 213 188.289 213C188.79 213 189.709 213.021 191.047 213.063C192.968 213.104 194.368 213.125 195.245 213.125C196.123 213.125 196.833 213.125 197.376 213.125C197.752 213.125 198.128 213.125 198.504 213.125C198.922 213.125 199.507 213.104 200.259 213.063C201.596 213.063 202.787 213.063 203.831 213.063C204.918 213.021 206.129 213 207.466 213C209.388 213 211.101 213.042 212.605 213.125C214.109 213.209 214.966 213.313 215.175 213.439C215.258 213.48 215.3 213.731 215.3 214.191C215.342 214.65 215.384 215.737 215.426 217.45C215.426 219.748 215.446 221.586 215.488 222.965C215.572 224.302 215.655 225.576 215.739 226.788L215.99 230.36C216.031 230.569 215.948 230.673 215.739 230.673C215.572 230.673 215.467 230.569 215.426 230.36L215.05 226.788C214.632 222.526 213.462 219.267 211.54 217.011C209.618 214.755 207.048 213.606 203.831 213.564H201.262V240.325C201.262 241.578 201.262 242.685 201.262 243.646C201.262 244.607 201.283 245.484 201.325 246.278C201.325 247.615 201.345 248.764 201.387 249.725C201.429 250.644 201.492 251.438 201.575 252.107C201.701 253.611 201.93 254.634 202.265 255.178C202.641 255.721 203.455 255.992 204.709 255.992H205.837C206.088 255.992 206.213 256.097 206.213 256.306C206.213 256.473 206.088 256.556 205.837 256.556C205.461 256.556 204.897 256.556 204.145 256.556C203.434 256.515 202.181 256.473 200.385 256.431C199.298 256.389 198.567 256.368 198.191 256.368C197.815 256.368 197.564 256.368 197.439 256.368C197.314 256.368 197.042 256.368 196.624 256.368C196.248 256.368 195.475 256.389 194.305 256.431Z" fill="black" fill-opacity="0.15"/>
</svg>
