<svg width="374" height="24" viewBox="0 0 374 24" fill="none" xmlns="http://www.w3.org/2000/svg">
<g clip-path="url(#clip0_149_14141)">
<path fill-rule="evenodd" clip-rule="evenodd" d="M35 0H3C1.3 0 0 1.3 0 3V21C0 22.7 1.4 24 3 24H35C36.7 24 38 22.7 38 21V3C38 1.3 36.6 0 35 0Z" fill="#FFB3C7"/>
<path fill-rule="evenodd" clip-rule="evenodd" d="M35 1C36.1 1 37 1.9 37 3V21C37 22.1 36.1 23 35 23H3C1.9 23 1 22.1 1 21V3C1 1.9 1.9 1 3 1H35Z" fill="#FFB3C7"/>
<path d="M34.117 13.184C33.63 13.184 33.235 13.584 33.235 14.076C33.235 14.569 33.63 14.969 34.117 14.969C34.605 14.969 35 14.569 35 14.076C35.0011 13.8407 34.9087 13.6145 34.7431 13.4473C34.5775 13.28 34.3523 13.1853 34.117 13.184ZM31.214 12.494C31.214 11.818 30.644 11.271 29.94 11.271C29.236 11.271 28.666 11.818 28.666 12.493C28.666 13.168 29.236 13.716 29.94 13.716C30.644 13.716 31.214 13.168 31.214 12.493V12.494ZM31.219 10.118H32.625V14.868H31.219V14.565C30.8095 14.8486 30.3231 15.0003 29.825 15C28.456 15 27.347 13.878 27.347 12.493C27.347 11.109 28.457 9.987 29.825 9.987C30.342 9.987 30.821 10.147 31.219 10.422V10.118ZM19.966 10.737V10.118H18.526V14.868H19.969V12.651C19.969 11.902 20.771 11.501 21.328 11.501H21.344V10.119C20.774 10.119 20.248 10.366 19.966 10.737ZM16.38 12.493C16.38 11.818 15.81 11.271 15.106 11.271C14.403 11.271 13.832 11.818 13.832 12.493C13.832 13.168 14.402 13.716 15.106 13.716C15.81 13.716 16.38 13.168 16.38 12.493ZM16.385 10.118H17.791V14.868H16.385V14.565C15.9752 14.8488 15.4885 15.0005 14.99 15C13.622 15 12.512 13.878 12.512 12.493C12.512 11.109 13.622 9.987 14.99 9.987C15.507 9.987 15.987 10.147 16.384 10.422L16.385 10.118ZM24.848 9.99C24.287 9.99 23.755 10.167 23.4 10.653V10.118H22V14.868H23.417V12.372C23.417 11.65 23.896 11.296 24.472 11.296C25.09 11.296 25.445 11.67 25.445 12.362V14.869H26.85V11.848C26.85 10.742 25.98 9.99 24.848 9.99ZM10.465 14.87H11.937V8H10.465V14.868V14.87ZM4 14.87H5.558V8H4V14.87ZM9.45 8C9.45395 8.72288 9.31529 9.43944 9.04194 10.1087C8.76859 10.7779 8.36592 11.3866 7.857 11.9L10.011 14.87H8.086L5.745 11.642L6.349 11.184C6.8417 10.8128 7.24085 10.3316 7.51465 9.7788C7.78845 9.226 7.92931 8.61688 7.926 8H9.45Z" fill="#0A0B09"/>
</g>
<g clip-path="url(#clip1_149_14141)">
<path opacity="0.07" d="M83 0H51C49.3 0 48 1.3 48 3V21C48 22.7 49.4 24 51 24H83C84.7 24 86 22.7 86 21V3C86 1.3 84.6 0 83 0Z" fill="black"/>
<path d="M83 1C84.1 1 85 1.9 85 3V21C85 22.1 84.1 23 83 23H51C49.9 23 49 22.1 49 21V3C49 1.9 49.9 1 51 1H83Z" fill="#006FCF"/>
<path d="M70.012 19.9356V11.5146L85 11.5276V13.8536L83.268 15.7056L85 17.5726V19.9476H82.234L80.764 18.3256L79.304 19.9536L70.012 19.9336V19.9356Z" fill="#F7F5EE"/>
<path d="M71.0129 19.0124V12.4424H76.5849V13.9554H72.8169V14.9834H76.4949V16.4714H72.8169V17.4814H76.5849V19.0124H71.0129Z" fill="#006FCF"/>
<path d="M76.557 19.0124L79.64 15.7234L76.557 12.4414H78.943L80.827 14.5244L82.717 12.4424H85V12.4934L81.983 15.7234L85 18.9204V19.0134H82.693L80.776 16.9104L78.878 19.0144H76.557V19.0124Z" fill="#006FCF"/>
<path d="M70.71 4.04004H74.324L75.593 6.92104V4.04004H80.053L80.823 6.19904L81.594 4.04004H85V12.461H67L70.71 4.04004Z" fill="#F7F5EE"/>
<path d="M71.395 4.95508L68.479 11.5211H70.479L71.029 10.2061H74.009L74.559 11.5211H76.609L73.705 4.95508H71.395ZM71.645 8.73208L72.52 6.64208L73.393 8.73208H71.645Z" fill="#006FCF"/>
<path d="M76.5811 11.5201V4.95312L79.3921 4.96312L80.8401 9.00012L82.2961 4.95412H85.0001V11.5191L83.2601 11.5351V7.02513L81.6161 11.5191H80.0261L78.3501 7.01013V11.5201H76.5821H76.5811Z" fill="#006FCF"/>
</g>
<g clip-path="url(#clip2_149_14141)">
<path d="M130.387 0H99.6129C99.4847 0 99.3563 0 99.2283 0.00067947C99.1203 0.00158543 99.0124 0.00271788 98.9044 0.00566225C98.6691 0.012004 98.4317 0.0260463 98.1994 0.0677205C97.9663 0.107648 97.7405 0.182074 97.5294 0.288548C97.105 0.504411 96.76 0.849374 96.5442 1.27378C96.4375 1.48497 96.3631 1.71095 96.3233 1.94419C96.2812 2.17679 96.2674 2.41393 96.2611 2.64903C96.2583 2.75697 96.2566 2.86493 96.2561 2.97291C96.2556 3.10065 96.2556 3.22884 96.2556 3.35726V20.6425C96.2556 20.7709 96.2556 20.8989 96.2561 21.0273C96.2567 21.1351 96.2581 21.2432 96.2611 21.3512C96.2674 21.5858 96.2814 21.8232 96.3233 22.0556C96.363 22.2888 96.4373 22.5148 96.5439 22.726C96.6511 22.9369 96.791 23.1296 96.9584 23.2967C97.1255 23.4642 97.3182 23.6041 97.5292 23.7112C97.7437 23.8206 97.9633 23.8902 98.1996 23.9325C98.4317 23.974 98.6691 23.988 98.9044 23.9943C99.0124 23.9968 99.1203 23.9982 99.2283 23.9989C99.3563 23.9998 99.4847 23.9998 99.6129 23.9998H130.387C130.515 23.9998 130.644 23.9998 130.772 23.9989C130.879 23.9984 130.987 23.9968 131.096 23.9943C131.331 23.988 131.568 23.974 131.801 23.9325C132.034 23.8925 132.26 23.818 132.471 23.7112C132.895 23.4951 133.24 23.1502 133.456 22.726C133.565 22.5115 133.635 22.2918 133.676 22.0556C133.719 21.8232 133.732 21.5858 133.739 21.3512C133.742 21.2432 133.743 21.1351 133.744 21.0273C133.744 20.8989 133.744 20.7709 133.744 20.6425V3.35749C133.744 3.22907 133.744 3.10087 133.744 2.97268C133.743 2.86478 133.741 2.75689 133.739 2.64903C133.732 2.41393 133.719 2.17679 133.676 1.94419C133.637 1.71091 133.563 1.4849 133.456 1.27378C133.24 0.849448 132.895 0.504513 132.471 0.288548C132.26 0.182184 132.034 0.107836 131.801 0.067947C131.568 0.0260463 131.331 0.0122305 131.096 0.00588874C130.988 0.00314533 130.88 0.00148432 130.772 0.000905959C130.644 0 130.515 0 130.387 0Z" fill="black"/>
<path d="M130.387 0.799805L130.766 0.800484C130.868 0.801164 130.971 0.802296 131.074 0.805014C131.253 0.809997 131.463 0.819736 131.659 0.854842C131.829 0.885418 131.971 0.931848 132.108 1.00161C132.382 1.1408 132.604 1.36345 132.743 1.63736C132.813 1.77326 132.859 1.91504 132.889 2.08649C132.924 2.27992 132.934 2.49033 132.939 2.67084C132.942 2.77276 132.943 2.87468 132.943 2.97886C132.944 3.10502 132.944 3.23095 132.944 3.35733V20.6426C132.944 20.769 132.944 20.8949 132.944 21.0235C132.943 21.1255 132.942 21.2274 132.939 21.3293C132.934 21.5096 132.924 21.72 132.889 21.9157C132.863 22.0713 132.814 22.2222 132.743 22.363C132.604 22.637 132.381 22.8597 132.107 22.9988C131.971 23.0681 131.829 23.1145 131.66 23.1448C131.461 23.1804 131.242 23.1901 131.077 23.1947C130.974 23.1969 130.871 23.1985 130.765 23.199C130.639 23.1999 130.513 23.1999 130.387 23.1999H99.6079C99.4833 23.1999 99.3587 23.1999 99.2319 23.199C99.13 23.1985 99.028 23.1972 98.9261 23.1949C98.7576 23.1904 98.5388 23.1804 98.3409 23.1451C98.1844 23.119 98.0327 23.0694 97.8911 22.9979C97.7552 22.9288 97.6312 22.8386 97.5237 22.7306C97.4159 22.623 97.3258 22.4989 97.2569 22.363C97.1857 22.2214 97.1364 22.0698 97.1106 21.9134C97.0752 21.718 97.0653 21.5085 97.0608 21.3295C97.0582 21.2272 97.0567 21.1249 97.0562 21.0226L97.0555 20.7221V3.27806L97.056 2.97796C97.0565 2.8755 97.058 2.77304 97.0605 2.67061C97.0655 2.49123 97.0752 2.28173 97.1108 2.08468C97.1367 1.9286 97.186 1.77733 97.2571 1.63601C97.326 1.50056 97.4157 1.3769 97.5244 1.26841C97.6321 1.16049 97.7563 1.07029 97.8922 1.00115C98.0335 0.930167 98.1847 0.880844 98.3406 0.854842C98.5366 0.819736 98.7465 0.809997 98.9263 0.805014C99.0287 0.802296 99.1313 0.801164 99.233 0.800484L99.6128 0.799805H130.387Z" fill="#F7F5EE"/>
<path d="M106.11 8.10171C106.428 7.70422 106.643 7.17039 106.587 6.625C106.121 6.6481 105.554 6.93189 105.225 7.32984C104.93 7.67048 104.669 8.22651 104.737 8.74902C105.259 8.79432 105.781 8.48811 106.11 8.10171Z" fill="black"/>
<path d="M106.581 8.8507C105.822 8.8054 105.177 9.28103 104.815 9.28103C104.453 9.28103 103.898 8.87335 103.298 8.88445C102.517 8.89577 101.793 9.33742 101.397 10.0395C100.582 11.4438 101.182 13.5275 101.974 14.6713C102.359 15.2375 102.823 15.8603 103.434 15.8379C104.012 15.8153 104.238 15.4642 104.939 15.4642C105.641 15.4642 105.845 15.8379 106.456 15.8266C107.09 15.8153 107.486 15.2604 107.871 14.6941C108.313 14.0486 108.493 13.4258 108.504 13.3918C108.493 13.3805 107.282 12.916 107.271 11.5231C107.26 10.3566 108.222 9.80173 108.267 9.76753C107.724 8.96394 106.875 8.87335 106.58 8.8507" fill="black"/>
<path d="M114.142 7.27246C115.791 7.27246 116.939 8.40876 116.939 10.063C116.939 11.7232 115.767 12.8654 114.101 12.8654H112.276V15.7681H110.957V7.27246H114.142ZM112.276 11.7585H113.789C114.937 11.7585 115.59 11.1405 115.59 10.0689C115.59 8.99763 114.937 8.38521 113.795 8.38521H112.276V11.7585Z" fill="black"/>
<path d="M117.266 14.0075C117.266 12.9183 118.096 12.2944 119.626 12.2002L121.269 12.1V11.6289C121.269 10.9404 120.816 10.5635 120.009 10.5635C119.344 10.5635 118.861 10.9049 118.761 11.4287H117.572C117.607 10.328 118.643 9.52734 120.045 9.52734C121.552 9.52734 122.535 10.3162 122.535 11.5408V15.7678H121.316V14.7493H121.287C120.939 15.4145 120.174 15.8324 119.344 15.8324C118.119 15.8324 117.266 15.1026 117.266 14.0075ZM121.269 13.4601V12.9831L119.803 13.0773C118.979 13.1303 118.549 13.4363 118.549 13.972C118.549 14.4902 118.997 14.8258 119.697 14.8258C120.592 14.8258 121.269 14.2546 121.269 13.4601Z" fill="black"/>
<path d="M123.655 18.0398V17.0215C123.738 17.0331 123.938 17.0448 124.044 17.0448C124.626 17.0448 124.956 16.798 125.156 16.1618L125.274 15.7851L123.043 9.60352H124.42L125.975 14.6194H126.004L127.558 9.60352H128.901L126.587 16.097C126.057 17.5866 125.451 18.0754 124.167 18.0754C124.067 18.0754 123.743 18.0636 123.655 18.0398Z" fill="black"/>
</g>
<g clip-path="url(#clip3_149_14141)">
<path opacity="0.07" d="M179 0H147C145.3 0 144 1.3 144 3V21C144 22.7 145.4 24 147 24H179C180.7 24 182 22.7 182 21V3C182 1.3 180.6 0 179 0Z" fill="black"/>
<path d="M179 1C180.1 1 181 1.9 181 3V21C181 22.1 180.1 23 179 23H147C145.9 23 145 22.1 145 21V3C145 1.9 145.9 1 147 1H179Z" fill="#F7F5EE"/>
<path d="M162.093 11.9757V15.1757H161.075V7.27574H163.766C164.088 7.27028 164.409 7.32861 164.709 7.44737C165.008 7.56613 165.282 7.74297 165.513 7.96774C165.732 8.17214 165.909 8.41769 166.033 8.69038C166.157 8.96306 166.226 9.25753 166.236 9.55694C166.246 9.85636 166.197 10.1549 166.092 10.4354C165.987 10.7159 165.828 10.9729 165.623 11.1917L165.513 11.3077C165.043 11.7547 164.415 11.9977 163.766 11.9817L162.093 11.9757ZM162.093 8.24374V11.0317H163.791C164.168 11.0437 164.532 10.8967 164.796 10.6277C164.985 10.4309 165.112 10.1829 165.161 9.91458C165.21 9.64624 165.179 9.36943 165.071 9.11857C164.964 8.86771 164.786 8.65387 164.558 8.50366C164.331 8.35345 164.064 8.2735 163.791 8.27374L162.093 8.24374ZM168.577 9.59174C169.227 9.56174 169.863 9.77974 170.355 10.2047C170.8 10.6347 171.037 11.2347 171.005 11.8537V15.1877H170.036V14.4217H169.987C169.813 14.709 169.567 14.946 169.274 15.1093C168.981 15.2726 168.65 15.3565 168.314 15.3527C167.766 15.3705 167.231 15.1801 166.818 14.8197C166.622 14.66 166.465 14.4577 166.359 14.2284C166.253 13.999 166.2 13.7485 166.205 13.4957C166.193 13.2403 166.243 12.9859 166.35 12.7535C166.456 12.5211 166.617 12.3176 166.818 12.1597C167.311 11.8049 167.909 11.6238 168.516 11.6447C169.033 11.6247 169.546 11.7377 170.006 11.9757V11.7677C170.009 11.5958 169.974 11.4253 169.901 11.2692C169.829 11.1131 169.722 10.9755 169.589 10.8667C169.321 10.6234 168.971 10.4917 168.609 10.4987C168.346 10.4963 168.087 10.5608 167.857 10.6863C167.626 10.8117 167.431 10.994 167.29 11.2157L166.395 10.6517C166.638 10.3035 166.966 10.0233 167.348 9.83779C167.73 9.65225 168.153 9.56754 168.577 9.59174ZM167.29 13.5197C167.288 13.6493 167.317 13.7774 167.376 13.8928C167.435 14.0083 167.521 14.1075 167.627 14.1817C167.85 14.3577 168.127 14.4507 168.412 14.4447C168.841 14.4437 169.252 14.2747 169.558 13.9727C169.863 13.6867 170.036 13.2877 170.036 12.8697C169.651 12.5961 169.183 12.4639 168.712 12.4957C168.346 12.4813 167.985 12.5844 167.682 12.7897C167.562 12.8701 167.463 12.9786 167.395 13.1059C167.327 13.2332 167.291 13.3753 167.29 13.5197ZM176.576 9.76974L173.186 17.5597H172.138L173.419 14.8317L171.195 9.76974H172.298L173.91 13.6547L175.479 9.76974H176.576Z" fill="#5F6368"/>
<path d="M157.986 11.2843C157.986 10.9763 157.962 10.6683 157.913 10.3643H153.623V12.1113H156.074C156.024 12.3889 155.919 12.6536 155.764 12.8895C155.609 13.1255 155.409 13.3277 155.174 13.4843V14.6183H156.638C157.083 14.1875 157.433 13.6683 157.665 13.0941C157.897 12.5198 158.007 11.9033 157.986 11.2843Z" fill="#4285F4"/>
<path d="M153.629 15.7209C154.735 15.7513 155.812 15.359 156.639 14.6239L155.173 13.4839C154.821 13.7098 154.422 13.8523 154.006 13.9008C153.59 13.9492 153.169 13.9022 152.775 13.7633C152.38 13.6245 152.022 13.3975 151.728 13.0995C151.434 12.8016 151.212 12.4406 151.079 12.0439H149.577V13.2139C149.953 13.967 150.531 14.6004 151.247 15.0432C151.962 15.486 152.787 15.7207 153.629 15.7209Z" fill="#34A853"/>
<path d="M151.079 12.0495C150.889 11.4868 150.889 10.8772 151.079 10.3145V9.14453H149.577C149.257 9.77599 149.09 10.474 149.09 11.182C149.09 11.89 149.257 12.5881 149.577 13.2195L151.079 12.0495Z" fill="#FBBC04"/>
<path d="M153.629 8.44019C154.276 8.42837 154.901 8.6728 155.369 9.12019L156.669 7.82719C155.84 7.0492 154.741 6.62485 153.604 6.64419C152.767 6.64838 151.948 6.88419 151.237 7.32547C150.527 7.76674 149.952 8.39625 149.577 9.14419L151.079 10.3152C151.255 9.77527 151.595 9.304 152.053 8.96766C152.51 8.63132 153.061 8.44685 153.629 8.44019Z" fill="#EA4335"/>
</g>
<g clip-path="url(#clip4_149_14141)">
<path opacity="0.07" d="M227 0H195C193.3 0 192 1.3 192 3V21C192 22.7 193.4 24 195 24H227C228.7 24 230 22.7 230 21V3C230 1.3 228.6 0 227 0Z" fill="black"/>
<path d="M227 1C228.1 1 229 1.9 229 3V21C229 22.1 228.1 23 227 23H195C193.9 23 193 22.1 193 21V3C193 1.9 193.9 1 195 1H227Z" fill="#F7F5EE"/>
<path d="M207 19C210.866 19 214 15.866 214 12C214 8.13401 210.866 5 207 5C203.134 5 200 8.13401 200 12C200 15.866 203.134 19 207 19Z" fill="#EB001B"/>
<path d="M215 19C218.866 19 222 15.866 222 12C222 8.13401 218.866 5 215 5C211.134 5 208 8.13401 208 12C208 15.866 211.134 19 215 19Z" fill="#F79E1B"/>
<path d="M214 11.9998C214 9.5998 212.8 7.4998 211 6.2998C209.2 7.5998 208 9.6998 208 11.9998C208 14.2998 209.2 16.4998 211 17.6998C212.8 16.4998 214 14.3998 214 11.9998Z" fill="#FF5F00"/>
</g>
<g clip-path="url(#clip5_149_14141)">
<path opacity="0.07" d="M275 0H243C241.3 0 240 1.3 240 3V21C240 22.7 241.4 24 243 24H275C276.7 24 278 22.7 278 21V3C278 1.3 276.6 0 275 0Z" fill="black"/>
<path d="M275 1C276.1 1 277 1.9 277 3V21C277 22.1 276.1 23 275 23H243C241.9 23 241 22.1 241 21V3C241 1.9 241.9 1 243 1H275Z" fill="#F7F5EE"/>
<path d="M263.9 8.3C264.1 7.3 263.9 6.6 263.3 6C262.7 5.3 261.6 5 260.2 5H256.1C255.8 5 255.6 5.2 255.5 5.5L254 15.6C254 15.8 254.1 16 254.3 16H257L257.4 12.6L259.2 10.4L263.9 8.3Z" fill="#003087"/>
<path d="M263.9 8.2998L263.7 8.4998C263.2 11.2998 261.5 12.2998 259.1 12.2998H258C257.7 12.2998 257.5 12.4998 257.4 12.7998L256.8 16.6998L256.6 17.6998C256.6 17.8998 256.7 18.0998 256.9 18.0998H259C259.3 18.0998 259.5 17.8998 259.5 17.6998V17.5998L259.9 15.1998V15.0998C259.9 14.8998 260.2 14.6998 260.4 14.6998H260.7C262.8 14.6998 264.4 13.8998 264.8 11.4998C265 10.4998 264.9 9.6998 264.4 9.0998C264.3 8.5998 264.1 8.3998 263.9 8.2998Z" fill="#3086C8"/>
<path d="M263.3 8.0998C263.2 7.9998 263.1 7.9998 263 7.9998C262.9 7.9998 262.8 7.9998 262.7 7.8998C262.4 7.7998 262 7.7998 261.6 7.7998H258.6C258.5 7.7998 258.4 7.7998 258.4 7.8998C258.2 7.9998 258.1 8.0998 258.1 8.2998L257.4 12.6998V12.7998C257.4 12.4998 257.7 12.2998 258 12.2998H259.3C261.8 12.2998 263.4 11.2998 263.9 8.4998V8.2998C263.8 8.1998 263.6 8.0998 263.4 8.0998H263.3Z" fill="#012169"/>
</g>
<g clip-path="url(#clip6_149_14141)">
<path d="M305.7 0V24H298.5C297.2 24 296.4 23 296.7 21.7L301.1 2.3C301.4 0.999999 303 0 304.3 0H305.7ZM318.3 0C317 0 315.4 0.999999 315.1 2.3L310.6 21.7C310.3 23 311.1 24 312.4 24H307.5V0H318.3Z" fill="#005B9A"/>
<path d="M304.3 0C303 0 301.4 1.1 301.1 2.3L296.7 21.7C296.4 23 297.2 24 298.5 24H289.6C288.8 24 288.1 23.4 288.1 22.6V1.6C288.1 0.8 288.8 0 289.6 0H304.3Z" fill="#E9292D"/>
<path d="M318.3 0C317 0 315.4 1.1 315.1 2.3L310.7 21.7C310.4 23 311.2 24 312.5 24H298H298.5C297.2 24 296.4 23 296.7 21.7L301.1 2.3C301.4 0.999999 303 0 304.3 0H318.3Z" fill="#0E73B9"/>
<path d="M326 1.6V22.6C326 23.4 325.4 24 324.5 24H312.4C311.1 24 310.3 22.9 310.6 21.7L315.1 2.3C315.4 0.999999 317 0 318.3 0H324.5C325.4 0 326 0.7 326 1.6Z" fill="#059DA4"/>
<path d="M302.878 13.6454H303.018C303.158 13.6454 303.298 13.5754 303.298 13.5054L303.718 12.8754H304.908L304.698 13.2254H306.098L305.888 13.8554H304.208C303.998 14.1354 303.788 14.2754 303.508 14.2754H302.668L302.878 13.6454ZM302.668 14.5554H305.678L305.468 15.2554H304.278L304.068 15.9554H305.258L305.048 16.6554H303.858L303.578 17.7054C303.508 17.8454 303.578 17.9854 303.858 17.9154H304.838L304.628 18.6154H302.738C302.388 18.6154 302.248 18.4054 302.388 17.9854L302.738 16.6554H301.968L302.178 15.9554H302.948L303.158 15.2554H302.458L302.668 14.5554ZM307.498 12.8054V13.2254C307.498 13.2254 308.058 12.8054 308.618 12.8054H310.578L309.808 15.4654C309.738 15.7454 309.458 15.9554 309.038 15.9554H306.798L306.308 17.8454C306.308 17.9154 306.308 17.9854 306.448 17.9854H306.868L306.728 18.5454H305.608C305.188 18.5454 305.048 18.4054 305.118 18.1954L306.588 12.8054H307.498ZM309.178 13.5754H307.428L307.218 14.2754C307.218 14.2754 307.498 14.0654 307.988 14.0654H309.038L309.178 13.5754ZM308.548 15.2554C308.688 15.2554 308.758 15.2554 308.758 15.1154L308.898 14.7654H307.148L307.008 15.3254L308.548 15.2554ZM307.358 16.0954H308.338V16.5154H308.618C308.758 16.5154 308.828 16.4454 308.828 16.3754L308.898 16.0954H309.738L309.598 16.5854C309.528 16.9354 309.248 17.0754 308.828 17.1454H308.268V17.9154C308.268 18.0554 308.338 18.1254 308.618 18.1254H309.108L308.968 18.6854H307.778C307.428 18.6854 307.288 18.5454 307.288 18.1954L307.358 16.0954ZM311.558 13.6454L311.768 12.8054H312.958L312.888 13.0854C312.888 13.0854 313.448 12.8054 313.938 12.8054H315.408L315.198 13.6454H314.988L313.868 17.4954H314.078L313.868 18.2654H313.658L313.588 18.6154H312.398L312.468 18.2654H310.298L310.508 17.4954H310.718L311.838 13.6454H311.558ZM312.818 13.6454L312.538 14.6954C312.538 14.6954 313.028 14.4854 313.448 14.4154C313.518 14.0654 313.658 13.6454 313.658 13.6454H312.818ZM312.328 15.1854L312.048 16.3054C312.048 16.3054 312.608 16.0254 313.028 16.0254C313.168 15.6054 313.238 15.2554 313.238 15.2554L312.328 15.1854ZM312.538 17.4954L312.748 16.7254H311.908L311.698 17.4954H312.538ZM315.408 12.8054H316.528L316.598 13.2254C316.598 13.2954 316.668 13.3654 316.808 13.3654H317.018L316.808 14.0654H316.038C315.758 14.0654 315.548 13.9954 315.548 13.7154L315.408 12.8054ZM315.058 14.2754H318.628L318.418 15.0454H317.228L317.018 15.7454H318.138L317.928 16.5154H316.668L316.388 16.9354H317.018L317.158 17.7754C317.158 17.8454 317.228 17.9154 317.368 17.9154H317.578L317.368 18.6154H316.668C316.318 18.6154 316.108 18.5454 316.108 18.2654L315.968 17.4954L315.408 18.3354C315.268 18.5454 315.058 18.6854 314.778 18.6854H313.728L313.938 17.9854H314.288C314.428 17.9854 314.498 17.9154 314.638 17.7754L315.478 16.5154H314.428L314.638 15.7454H315.828L316.038 15.0454H314.848L315.058 14.2754ZM295.318 9.23543C295.178 9.93543 294.898 10.4254 294.408 10.7754C293.918 11.1254 293.288 11.3354 292.518 11.3354C291.818 11.3354 291.258 11.1254 290.978 10.7754C290.768 10.4954 290.628 10.2154 290.628 9.79543C290.628 9.65543 290.628 9.44543 290.698 9.23543L291.538 5.31543H292.728L291.958 9.23543V9.51543C291.958 9.72543 292.028 9.86543 292.098 10.0054C292.238 10.2154 292.448 10.2854 292.798 10.2854C293.148 10.2854 293.498 10.2154 293.708 10.0054C293.918 9.79543 294.128 9.58543 294.198 9.23543L294.968 5.31543H296.158L295.318 9.23543ZM296.438 7.69543H297.278L297.208 8.18543L297.348 8.04543C297.628 7.76543 297.978 7.62543 298.398 7.62543C298.748 7.62543 299.028 7.76543 299.168 7.97543C299.308 8.18543 299.378 8.46543 299.308 8.88543L298.818 11.2654H297.908L298.328 9.09543C298.398 8.81543 298.398 8.60543 298.328 8.53543C298.258 8.39543 298.118 8.39543 297.978 8.39543C297.768 8.39543 297.558 8.46543 297.418 8.60543C297.278 8.74543 297.138 8.95543 297.138 9.23543L296.718 11.2654H295.808L296.438 7.69543ZM306.238 7.69543H307.078L307.008 8.18543L307.148 8.04543C307.428 7.76543 307.778 7.62543 308.198 7.62543C308.548 7.62543 308.828 7.76543 308.968 7.97543C309.108 8.18543 309.178 8.46543 309.108 8.88543L308.618 11.2654H307.708L308.128 9.02543C308.198 8.81543 308.128 8.60543 308.058 8.53543C307.988 8.39543 307.848 8.39543 307.708 8.39543C307.498 8.39543 307.288 8.46543 307.148 8.60543C307.008 8.74543 306.868 8.95543 306.868 9.23543L306.448 11.2654H305.538L306.238 7.69543ZM300.428 7.69543H301.408L300.638 11.1954H299.658L300.428 7.69543ZM300.778 6.36543H301.758L301.548 7.20543H300.568L300.778 6.36543ZM302.178 10.9154C301.968 10.7054 301.828 10.3554 301.828 9.93543V9.72543C301.828 9.65543 301.828 9.51543 301.898 9.44543C302.038 8.88543 302.248 8.39543 302.598 8.11543C302.948 7.76543 303.438 7.62543 303.928 7.62543C304.348 7.62543 304.698 7.76543 304.978 7.97543C305.188 8.18543 305.328 8.53543 305.328 8.95543V9.16543C305.328 9.23543 305.328 9.37543 305.258 9.44543C305.118 10.0054 304.908 10.4254 304.558 10.7754C304.208 11.1254 303.718 11.2654 303.228 11.2654C302.878 11.2654 302.528 11.1254 302.178 10.9154ZM304.068 10.2154C304.208 10.0054 304.348 9.72543 304.418 9.37543V9.02543C304.418 8.81543 304.348 8.67543 304.278 8.53543C304.216 8.467 304.141 8.41278 304.056 8.37652C303.972 8.34026 303.88 8.32283 303.788 8.32543C303.508 8.32543 303.298 8.39543 303.158 8.60543C303.018 8.81543 302.878 9.09543 302.808 9.44543V9.72543C302.808 9.93543 302.878 10.0754 302.948 10.2154C303.088 10.3554 303.228 10.4254 303.438 10.4254C303.718 10.4954 303.858 10.4254 304.068 10.2154ZM310.578 5.52543H313.098C313.588 5.52543 313.938 5.66543 314.218 5.87543C314.498 6.08543 314.568 6.43543 314.568 6.78543V7.06543C314.568 7.13543 314.568 7.27543 314.498 7.34543C314.428 7.83543 314.148 8.32543 313.798 8.60543C313.378 8.95543 312.958 9.09543 312.398 9.09543H310.998L310.578 11.1254H309.388L310.578 5.52543ZM311.138 8.11543H312.258C312.538 8.11543 312.748 8.04543 312.958 7.90543C313.098 7.76543 313.238 7.55543 313.308 7.27543V6.99543C313.308 6.78543 313.238 6.64543 313.098 6.57543C312.958 6.50543 312.748 6.43543 312.398 6.43543H311.488L311.138 8.11543ZM319.818 11.8254C319.468 12.5954 319.118 13.0854 318.908 13.2954C318.698 13.5054 318.278 13.9954 317.298 13.9954L317.368 13.3654C318.208 13.0854 318.628 11.9654 318.908 11.4054L318.628 7.62543H319.818L319.888 10.0054L320.798 7.69543H321.848L319.818 11.8254ZM316.878 7.97543L316.458 8.25543C316.038 7.90543 315.618 7.69543 314.918 8.04543C313.938 8.53543 313.028 12.1754 315.828 10.9854L315.968 11.1954H317.088L317.788 7.90543L316.878 7.97543ZM316.318 9.79543C316.108 10.3554 315.758 10.6354 315.408 10.5654C315.128 10.4254 315.058 9.93543 315.198 9.37543C315.408 8.81543 315.758 8.53543 316.108 8.60543C316.388 8.74543 316.458 9.23543 316.318 9.79543Z" fill="#F7F5EE"/>
</g>
<g clip-path="url(#clip7_149_14141)">
<path opacity="0.07" d="M371 0H339C337.3 0 336 1.3 336 3V21C336 22.7 337.4 24 339 24H371C372.7 24 374 22.7 374 21V3C374 1.3 372.6 0 371 0Z" fill="black"/>
<path d="M371 1C372.1 1 373 1.9 373 3V21C373 22.1 372.1 23 371 23H339C337.9 23 337 22.1 337 21V3C337 1.9 337.9 1 339 1H371Z" fill="#F7F5EE"/>
<path d="M364.3 10.1H364C363.6 11.1 363.3 11.6 363 13.1H364.9C364.6 11.6 364.6 10.9 364.3 10.1ZM367.2 16H365.5C365.4 16 365.4 16 365.3 15.9L365.1 15L365 14.8H362.6C362.5 14.8 362.4 14.8 362.4 15L362.1 15.9C362.1 16 362 16 362 16H359.9L360.1 15.5L363 8.7C363 8.2 363.3 8 363.8 8H365.3C365.4 8 365.5 8 365.5 8.2L366.9 14.7C367 15.1 367.1 15.4 367.1 15.8C367.2 15.9 367.2 15.9 367.2 16ZM353.8 15.7L354.2 13.9C354.3 13.9 354.4 14 354.4 14C355.1 14.3 355.8 14.5 356.5 14.4C356.7 14.4 357 14.3 357.2 14.2C357.7 14 357.7 13.5 357.3 13.1C357.1 12.9 356.8 12.8 356.5 12.6C356.1 12.4 355.7 12.2 355.4 11.9C354.2 10.9 354.6 9.5 355.3 8.8C355.9 8.4 356.2 8 357 8C358.2 8 359.5 8 360.1 8.2H360.2C360.1 8.8 360 9.3 359.8 9.9C359.3 9.7 358.8 9.5 358.3 9.5C358 9.5 357.7 9.5 357.4 9.6C357.2 9.6 357.1 9.7 357 9.8C356.8 10 356.8 10.3 357 10.5L357.5 10.9C357.9 11.1 358.3 11.3 358.6 11.5C359.1 11.8 359.6 12.3 359.7 12.9C359.9 13.8 359.6 14.6 358.8 15.2C358.3 15.6 358.1 15.8 357.4 15.8C356 15.8 354.9 15.9 354 15.6C353.9 15.8 353.9 15.8 353.8 15.7ZM350.3 16C350.4 15.3 350.4 15.3 350.5 15C351 12.8 351.5 10.5 351.9 8.3C352 8.1 352 8 352.2 8H354C353.8 9.2 353.6 10.1 353.3 11.2C353 12.7 352.7 14.2 352.3 15.7C352.3 15.9 352.2 15.9 352 15.9M341 8.2C341 8.1 341.2 8 341.3 8H344.7C345.2 8 345.6 8.3 345.7 8.8L346.6 13.2C346.6 13.3 346.6 13.3 346.7 13.4C346.7 13.3 346.8 13.3 346.8 13.3L348.9 8.2C348.8 8.1 348.9 8 349 8H351.1C351.1 8.1 351.1 8.1 351 8.2L347.9 15.5C347.8 15.7 347.8 15.8 347.7 15.9C347.6 16 347.4 15.9 347.2 15.9H345.7C345.6 15.9 345.5 15.9 345.5 15.7L343.9 9.5C343.7 9.3 343.4 9 343 8.9C342.4 8.6 341.3 8.4 341.1 8.4L341 8.2Z" fill="#142688"/>
</g>
<defs>
<clipPath id="clip0_149_14141">
<rect width="38" height="24" fill="white"/>
</clipPath>
<clipPath id="clip1_149_14141">
<rect width="38" height="24" fill="white" transform="translate(48)"/>
</clipPath>
<clipPath id="clip2_149_14141">
<rect width="38" height="24" fill="white" transform="translate(96)"/>
</clipPath>
<clipPath id="clip3_149_14141">
<rect width="38" height="24" fill="white" transform="translate(144)"/>
</clipPath>
<clipPath id="clip4_149_14141">
<rect width="38" height="24" fill="white" transform="translate(192)"/>
</clipPath>
<clipPath id="clip5_149_14141">
<rect width="38" height="24" fill="white" transform="translate(240)"/>
</clipPath>
<clipPath id="clip6_149_14141">
<rect width="38" height="24" fill="white" transform="translate(288)"/>
</clipPath>
<clipPath id="clip7_149_14141">
<rect width="38" height="24" fill="white" transform="translate(336)"/>
</clipPath>
</defs>
</svg>
